:FULLY-SPECIFIED
:FORCE-ALL-JOINTS-BE-3DOF
:DEGREES
68
root 6.15184 16.7827 -27.7526 10.4683 1.96369 -4.47419
lfemur -31.6183 7.65162 -14.5499
ltibia 42.0621 0 0
lfoot -25.0108 4.28851 0
ltoes 25.7748 0 0
rfemur -14.4177 0.699622 21.7046
rtibia 28.3518 0 0
rfoot -27.6466 -17.9167 0
rtoes -1.90799 0 0
lowerback -4.10995 3.17353 1.97334
upperback -1.83234 4.18143 0.362357
thorax 0.551109 2.07926 -0.550134
lowerneck -10.1033 -2.77724 3.1498
upperneck -4.42174 -3.98466 1.38393
head 0.257354 -2.01108 -0.212955
lclavicle 4.20509e-15 1.16362e-14 0
lhumerus -42.2577 -10.1901 93.3942
lradius 43.0859 0 0
lwrist 8.28535 0 0
lhand -11.3898 2.74445 0
lfingers 7.12502 0 0
lthumb 14.6449 32.2068 0
rclavicle 4.20509e-15 1.16362e-14 0
rhumerus -38.3911 0.276743 -89.5744
rradius 42.1341 0 0
rwrist 8.67741 0 0
rhand -24.7208 -20.8765 0
rfingers 7.12502 0 0
rthumb 1.7812 -50.8438 0
69
root 6.1605 16.7781 -27.7399 10.4802 2.10116 -4.56923
lfemur -32.0526 7.8938 -14.3478
ltibia 42.3795 0 0
lfoot -24.6152 4.28801 0
ltoes 25.413 0 0
rfemur -14.3226 0.477078 21.7904
rtibia 28.2731 0 0
rfoot -27.6686 -17.8814 0
rtoes -2.4135 0 0
lowerback -4.04663 3.20656 2.05769
upperback -1.8359 4.22329 0.36993
thorax 0.517987 2.09979 -0.590697
lowerneck -10.1266 -2.82551 3.15726
upperneck -4.47751 -4.04872 1.39096
head 0.242996 -2.0437 -0.213617
lclavicle 3.32177e-15 1.16556e-14 0
lhumerus -42.2906 -10.0786 93.2765
lradius 43.1944 0 0
lwrist 8.34886 0 0
lhand -11.3694 2.71659 0
lfingers 7.12502 0 0
lthumb 14.6646 32.1776 0
rclavicle 3.32177e-15 1.16556e-14 0
rhumerus -38.3216 0.482218 -89.5689
rradius 42.2587 0 0
rwrist 8.58831 0 0
rhand -24.6437 -20.8991 0
rfingers 7.12502 0 0
rthumb 1.85572 -50.8659 0
70
root 6.16916 16.7736 -27.7272 10.4922 2.23863 -4.66427
lfemur -32.4869 8.13597 -14.1457
ltibia 42.6968 0 0
lfoot -24.2196 4.28751 0
ltoes 25.0511 0 0
rfemur -14.2275 0.254534 21.8762
rtibia 28.1944 0 0
rfoot -27.6906 -17.846 0
rtoes -2.91901 0 0
lowerback -3.9833 3.23959 2.14204
upperback -1.83946 4.26515 0.377503
thorax 0.484865 2.12033 -0.63126
lowerneck -10.1499 -2.87377 3.16472
upperneck -4.53327 -4.11278 1.39799
head 0.228638 -2.07632 -0.214279
lclavicle 2.43845e-15 1.1675e-14 0
lhumerus -42.3234 -9.96705 93.1587
lradius 43.3029 0 0
lwrist 8.41237 0 0
lhand -11.3489 2.68874 0
lfingers 7.12502 0 0
lthumb 14.6844 32.1483 0
rclavicle 2.43845e-15 1.1675e-14 0
rhumerus -38.2521 0.687693 -89.5633
rradius 42.3834 0 0
rwrist 8.49922 0 0
rhand -24.5665 -20.9217 0
rfingers 7.12502 0 0
rthumb 1.93023 -50.888 0
71
root 6.17782 16.7691 -27.7145 10.5042 2.3761 -4.75931
lfemur -32.9211 8.37814 -13.9436
ltibia 43.0142 0 0
lfoot -23.824 4.28701 0
ltoes 24.6893 0 0
rfemur -14.1324 0.0319898 21.962
rtibia 28.1157 0 0
rfoot -27.7126 -17.8107 0
rtoes -3.42452 0 0
lowerback -3.91997 3.27262 2.22639
upperback -1.84302 4.30701 0.385076
thorax 0.451742 2.14086 -0.671823
lowerneck -10.1732 -2.92204 3.17218
upperneck -4.58903 -4.17684 1.40502
head 0.21428 -2.10894 -0.214941
lclavicle 1.55513e-15 1.16944e-14 0
lhumerus -42.3562 -9.85551 93.0409
lradius 43.4114 0 0
lwrist 8.47588 0 0
lhand -11.3284 2.66088 0
lfingers 7.12502 0 0
lthumb 14.7041 32.119 0
rclavicle 1.55513e-15 1.16944e-14 0
rhumerus -38.1826 0.893169 -89.5577
rradius 42.508 0 0
rwrist 8.41012 0 0
rhand -24.4893 -20.9443 0
rfingers 7.12502 0 0
rthumb 2.00475 -50.9102 0
72
root 6.18648 16.7645 -27.7018 10.5161 2.51358 -4.85435
lfemur -33.3554 8.62031 -13.7415
ltibia 43.3315 0 0
lfoot -23.4284 4.28651 0
ltoes 24.3274 0 0
rfemur -14.0373 -0.190554 22.0478
rtibia 28.0371 0 0
rfoot -27.7346 -17.7754 0
rtoes -3.93003 0 0
lowerback -3.85664 3.30565 2.31074
upperback -1.84659 4.34886 0.392649
thorax 0.41862 2.1614 -0.712386
lowerneck -10.1965 -2.9703 3.17964
upperneck -4.6448 -4.24089 1.41204
head 0.199921 -2.14156 -0.215603
lclavicle 6.71815e-16 1.17138e-14 0
lhumerus -42.3891 -9.74396 92.9231
lradius 43.5199 0 0
lwrist 8.53939 0 0
lhand -11.3079 2.63303 0
lfingers 7.12502 0 0
lthumb 14.7238 32.0897 0
rclavicle 6.71815e-16 1.17138e-14 0
rhumerus -38.1131 1.09864 -89.5522
rradius 42.6326 0 0
rwrist 8.32102 0 0
rhand -24.4122 -20.9669 0
rfingers 7.12502 0 0
rthumb 2.07927 -50.9323 0
73
root 6.19515 16.76 -27.689 10.5281 2.65105 -4.94939
lfemur -33.7897 8.86248 -13.5394
ltibia 43.6489 0 0
lfoot -23.0328 4.28601 0
ltoes 23.9656 0 0
rfemur -13.9423 -0.413099 22.1336
rtibia 27.9584 0 0
rfoot -27.7565 -17.74 0
rtoes -4.43554 0 0
lowerback -3.79332 3.33868 2.39509
upperback -1.85015 4.39072 0.400223
thorax 0.385498 2.18193 -0.752949
lowerneck -10.2198 -3.01857 3.1871
upperneck -4.70056 -4.30495 1.41907
head 0.185563 -2.17418 -0.216264
lclavicle -2.11505e-16 1.17331e-14 0
lhumerus -42.4219 -9.63242 92.8053
lradius 43.6283 0 0
lwrist 8.6029 0 0
lhand -11.2875 2.60517 0
lfingers 7.12502 0 0
lthumb 14.7435 32.0605 0
rclavicle -2.11505e-16 1.17331e-14 0
rhumerus -38.0436 1.30412 -89.5466
rradius 42.7573 0 0
rwrist 8.23193 0 0
rhand -24.335 -20.9896 0
rfingers 7.12502 0 0
rthumb 2.15379 -50.9544 0
74
root 6.20381 16.7555 -27.6763 10.54 2.78852 -5.04443
lfemur -34.224 9.10465 -13.3373
ltibia 43.9662 0 0
lfoot -22.6372 4.28551 0
ltoes 23.6037 0 0
rfemur -13.8472 -0.635643 22.2194
rtibia 27.8797 0 0
rfoot -27.7785 -17.7047 0
rtoes -4.94105 0 0
lowerback -3.72999 3.37171 2.47944
upperback -1.85371 4.43258 0.407796
thorax 0.352375 2.20247 -0.793512
lowerneck -10.2432 -3.06683 3.19456
upperneck -4.75632 -4.36901 1.4261
head 0.171205 -2.2068 -0.216926
lclavicle -1.09482e-15 1.17525e-14 0
lhumerus -42.4547 -9.52087 92.6875
lradius 43.7368 0 0
lwrist 8.66641 0 0
lhand -11.267 2.57732 0
lfingers 7.12502 0 0
lthumb 14.7633 32.0312 0
rclavicle -1.09482e-15 1.17525e-14 0
rhumerus -37.9741 1.50959 -89.541
rradius 42.8819 0 0
rwrist 8.14283 0 0
rhand -24.2579 -21.0122 0
rfingers 7.12502 0 0
rthumb 2.2283 -50.9766 0
75
root 6.21247 16.751 -27.6636 10.552 2.92599 -5.13947
lfemur -34.6583 9.34683 -13.1352
ltibia 44.2835 0 0
lfoot -22.2416 4.28501 0
ltoes 23.2419 0 0
rfemur -13.7521 -0.858187 22.3052
rtibia 27.8011 0 0
rfoot -27.8005 -17.6694 0
rtoes -5.44656 0 0
lowerback -3.66666 3.40474 2.56379
upperback -1.85727 4.47443 0.415369
thorax 0.319253 2.223 -0.834075
lowerneck -10.2665 -3.11509 3.20202
upperneck -4.81209 -4.43307 1.43313
head 0.156847 -2.23942 -0.217588
lclavicle -1.97814e-15 1.17719e-14 0
lhumerus -42.4875 -9.40933 92.5698
lradius 43.8453 0 0
lwrist 8.72992 0 0
lhand -11.2465 2.54947 0
lfingers 7.12502 0 0
lthumb 14.783 32.0019 0
rclavicle -1.97814e-15 1.17719e-14 0
rhumerus -37.9046 1.71507 -89.5354
rradius 43.0065 0 0
rwrist 8.05374 0 0
rhand -24.1807 -21.0348 0
rfingers 7.12502 0 0
rthumb 2.30282 -50.9987 0
76
root 6.22113 16.7464 -27.6509 10.5639 3.06346 -5.23451
lfemur -35.0926 9.589 -12.9331
ltibia 44.6009 0 0
lfoot -21.846 4.28451 0
ltoes 22.88 0 0
rfemur -13.657 -1.08073 22.391
rtibia 27.7224 0 0
rfoot -27.8225 -17.634 0
rtoes -5.95207 0 0
lowerback -3.60333 3.43777 2.64814
upperback -1.86083 4.51629 0.422942
thorax 0.286131 2.24354 -0.874638
lowerneck -10.2898 -3.16336 3.20948
upperneck -4.86785 -4.49713 1.44016
head 0.142489 -2.27204 -0.21825
lclavicle -2.86146e-15 1.17913e-14 0
lhumerus -42.5204 -9.29778 92.452
lradius 43.9538 0 0
lwrist 8.79343 0 0
lhand -11.226 2.52161 0
lfingers 7.12502 0 0
lthumb 14.8027 31.9726 0
rclavicle -2.86146e-15 1.17913e-14 0
rhumerus -37.8351 1.92054 -89.5299
rradius 43.1312 0 0
rwrist 7.96464 0 0
rhand -24.1036 -21.0574 0
rfingers 7.12502 0 0
rthumb 2.37734 -51.0208 0
77
root 6.22979 16.7419 -27.6382 10.5759 3.20094 -5.32955
lfemur -35.5269 9.83117 -12.731
ltibia 44.9182 0 0
lfoot -21.4504 4.28401 0
ltoes 22.5182 0 0
rfemur -13.5619 -1.30328 22.4767
rtibia 27.6437 0 0
rfoot -27.8445 -17.5987 0
rtoes -6.45758 0 0
lowerback -3.54001 3.4708 2.73249
upperback -1.8644 4.55815 0.430515
thorax 0.253008 2.26407 -0.915201
lowerneck -10.3131 -3.21162 3.21694
upperneck -4.92362 -4.56118 1.44718
head 0.128131 -2.30466 -0.218912
lclavicle -3.74478e-15 1.18107e-14 0
lhumerus -42.5532 -9.18624 92.3342
lradius 44.0623 0 0
lwrist 8.85695 0 0
lhand -11.2056 2.49376 0
lfingers 7.12502 0 0
lthumb 14.8224 31.9434 0
rclavicle -3.74478e-15 1.18107e-14 0
rhumerus -37.7657 2.12602 -89.5243
rradius 43.2558 0 0
rwrist 7.87555 0 0
rhand -24.0264 -21.08 0
rfingers 7.12502 0 0
rthumb 2.45186 -51.043 0
78
root 6.23845 16.7374 -27.6255 10.5878 3.33841 -5.42458
lfemur -35.9612 10.0733 -12.5289
ltibia 45.2356 0 0
lfoot -21.0549 4.2835 0
ltoes 22.1563 0 0
rfemur -13.4668 -1.52582 22.5625
rtibia 27.5651 0 0
rfoot -27.8665 -17.5634 0
rtoes -6.9631 0 0
lowerback -3.47668 3.50384 2.81684
upperback -1.86796 4.6 0.438088
thorax 0.219886 2.28461 -0.955765
lowerneck -10.3364 -3.25989 3.2244
upperneck -4.97938 -4.62524 1.45421
head 0.113773 -2.33728 -0.219574
lclavicle -4.6281e-15 1.18301e-14 0
lhumerus -42.586 -9.07469 92.2164
lradius 44.1708 0 0
lwrist 8.92046 0 0
lhand -11.1851 2.4659 0
lfingers 7.12502 0 0
lthumb 14.8422 31.9141 0
rclavicle -4.6281e-15 1.18301e-14 0
rhumerus -37.6962 2.33149 -89.5187
rradius 43.3804 0 0
rwrist 7.78645 0 0
rhand -23.9493 -21.1026 0
rfingers 7.12502 0 0
rthumb 2.52637 -51.0651 0
79
root 6.24711 16.7328 -27.6128 10.5998 3.47588 -5.51962
lfemur -36.3954 10.3155 -12.3268
ltibia 45.5529 0 0
lfoot -20.6593 4.283 0
ltoes 21.7945 0 0
rfemur -13.3717 -1.74836 22.6483
rtibia 27.4864 0 0
rfoot -27.8885 -17.528 0
rtoes -7.46861 0 0
lowerback -3.41335 3.53687 2.90119
upperback -1.87152 4.64186 0.445661
thorax 0.186764 2.30514 -0.996328
lowerneck -10.3597 -3.30815 3.23186
upperneck -5.03514 -4.6893 1.46124
head 0.0994154 -2.3699 -0.220236
lclavicle -5.51142e-15 1.18495e-14 0
lhumerus -42.6189 -8.96315 92.0986
lradius 44.2793 0 0
lwrist 8.98397 0 0
lhand -11.1646 2.43805 0
lfingers 7.12502 0 0
lthumb 14.8619 31.8848 0
rclavicle -5.51142e-15 1.18495e-14 0
rhumerus -37.6267 2.53697 -89.5132
rradius 43.5051 0 0
rwrist 7.69735 0 0
rhand -23.8721 -21.1252 0
rfingers 7.12502 0 0
rthumb 2.60089 -51.0873 0
80
root 6.25578 16.7283 -27.6 10.6117 3.61335 -5.61466
lfemur -36.8297 10.5577 -12.1247
ltibia 45.8703 0 0
lfoot -20.2637 4.2825 0
ltoes 21.4326 0 0
rfemur -13.2767 -1.97091 22.7341
rtibia 27.4077 0 0
rfoot -27.9105 -17.4927 0
rtoes -7.97412 0 0
lowerback -3.35002 3.5699 2.98554
upperback -1.87508 4.68372 0.453235
thorax 0.153641 2.32568 -1.03689
lowerneck -10.3831 -3.35642 3.23932
upperneck -5.09091 -4.75336 1.46827
head 0.0850574 -2.40252 -0.220897
lclavicle -6.39474e-15 1.18689e-14 0
lhumerus -42.6517 -8.8516 91.9808
lradius 44.3877 0 0
lwrist 9.04748 0 0
lhand -11.1441 2.41019 0
lfingers 7.12502 0 0
lthumb 14.8816 31.8555 0
rclavicle -6.39474e-15 1.18689e-14 0
rhumerus -37.5572 2.74244 -89.5076
rradius 43.6297 0 0
rwrist 7.60826 0 0
rhand -23.795 -21.1479 0
rfingers 7.12502 0 0
rthumb 2.67541 -51.1094 0
